<svg width="1600" height="520" viewBox="0 0 1600 520" fill="none" xmlns="http://www.w3.org/2000/svg">
  <defs>
    <linearGradient id="bg" x1="0" y1="0" x2="1600" y2="520" gradientUnits="userSpaceOnUse">
      <stop stop-color="#F5F3FF"/>
      <stop offset="0.45" stop-color="#F8FAFC"/>
      <stop offset="1" stop-color="#F5F3FF"/>
    </linearGradient>
    <linearGradient id="june" x1="80" y1="170" x2="470" y2="290" gradientUnits="userSpaceOnUse">
      <stop stop-color="#8B7CEB"/>
      <stop offset="1" stop-color="#B4AAFF"/>
    </linearGradient>
    <filter id="shadow" x="40" y="60" width="1520" height="400" filterUnits="userSpaceOnUse" color-interpolation-filters="sRGB">
      <feDropShadow dx="0" dy="8" stdDeviation="12" flood-color="#0F172A" flood-opacity="0.12"/>
    </filter>
    <marker id="arrow" markerWidth="10" markerHeight="10" refX="8" refY="5" orient="auto">
      <path d="M0 0L10 5L0 10V0Z" fill="#64748B"/>
    </marker>
  </defs>

  <rect width="1600" height="520" rx="32" fill="url(#bg)"/>

  <g filter="url(#shadow)">
    <rect x="70" y="180" width="420" height="120" rx="24" fill="url(#june)" stroke="#6D63B5" stroke-width="4"/>
    <text x="100" y="248" fill="#111827" font-family="Arial, Helvetica, sans-serif" font-size="36" font-weight="700">June (Private Orchestrator)</text>
    <text x="440" y="224" fill="#4338CA" font-family="Arial, Helvetica, sans-serif" font-size="28">✎</text>
  </g>

  <line x1="490" y1="240" x2="740" y2="240" stroke="#94A3B8" stroke-width="5" stroke-dasharray="10 10" marker-end="url(#arrow)"/>
  <text x="525" y="220" fill="#111827" font-family="Arial, Helvetica, sans-serif" font-size="28">delegates to</text>

  <g filter="url(#shadow)">
    <rect x="740" y="125" width="420" height="190" rx="24" fill="white" stroke="#64748B" stroke-width="4"/>
    <text x="775" y="180" fill="#111827" font-family="Arial, Helvetica, sans-serif" font-size="34" font-weight="700">Operator-Control-</text>
    <text x="775" y="220" fill="#111827" font-family="Arial, Helvetica, sans-serif" font-size="34" font-weight="700">Plane</text>
    <text x="1100" y="164" fill="#6366F1" font-family="Arial, Helvetica, sans-serif" font-size="26">🎛</text>

    <circle cx="792" cy="258" r="6" fill="#111827"/>
    <text x="812" y="266" fill="#111827" font-family="Arial, Helvetica, sans-serif" font-size="28">State</text>

    <circle cx="792" cy="298" r="6" fill="#111827"/>
    <text x="812" y="306" fill="#111827" font-family="Arial, Helvetica, sans-serif" font-size="28">Control Logic</text>

    <circle cx="792" cy="338" r="6" fill="#111827"/>
    <text x="812" y="346" fill="#111827" font-family="Arial, Helvetica, sans-serif" font-size="28">Project Truth</text>
  </g>

  <path d="M1160 175C1220 175 1230 110 1300 110" stroke="#64748B" stroke-width="5" fill="none" marker-end="url(#arrow)"/>
  <path d="M1300 220C1230 220 1220 210 1160 210" stroke="#64748B" stroke-width="5" fill="none" marker-end="url(#arrow)"/>

  <g filter="url(#shadow)">
    <rect x="1295" y="70" width="255" height="135" rx="24" fill="white" stroke="#64748B" stroke-width="4"/>
    <text x="1325" y="125" fill="#111827" font-family="Arial, Helvetica, sans-serif" font-size="30" font-weight="700">Argus-Bounded-Executor</text>
    <text x="1330" y="172" fill="#111827" font-family="Arial, Helvetica, sans-serif" font-size="28">Bounded execution runs</text>
    <text x="1510" y="110" fill="#64748B" font-family="Arial, Helvetica, sans-serif" font-size="26">⌛</text>
  </g>

  <path d="M1160 290C1220 290 1230 350 1300 350" stroke="#64748B" stroke-width="5" fill="none" marker-end="url(#arrow)"/>
  <path d="M1300 405C1230 405 1220 395 1160 395" stroke="#64748B" stroke-width="5" fill="none" marker-end="url(#arrow)"/>

  <g filter="url(#shadow)">
    <rect x="1295" y="310" width="255" height="150" rx="24" fill="white" stroke="#64748B" stroke-width="4"/>
    <text x="1330" y="365" fill="#111827" font-family="Arial, Helvetica, sans-serif" font-size="30" font-weight="700">Atlas-Validation-Layer</text>

    <circle cx="1338" cy="400" r="6" fill="#111827"/>
    <text x="1358" y="408" fill="#111827" font-family="Arial, Helvetica, sans-serif" font-size="28">Validation</text>

    <circle cx="1338" cy="434" r="6" fill="#111827"/>
    <text x="1358" y="442" fill="#111827" font-family="Arial, Helvetica, sans-serif" font-size="28">Sandboxing</text>

    <circle cx="1338" cy="468" r="6" fill="#111827"/>
    <text x="1358" y="476" fill="#111827" font-family="Arial, Helvetica, sans-serif" font-size="28">Verification</text>
  </g>
</svg>
